solid OpenSCAD_Model
  facet normal -0.994522 0 -0.104529
    outer loop
      vertex 20.75 -89 20
      vertex 20.2966 -2 24.3142
      vertex 20.75 -2 20
    endloop
  endfacet
  facet normal -0.994522 -0 -0.104529
    outer loop
      vertex 20.2966 -2 24.3142
      vertex 20.75 -89 20
      vertex 20.2966 -89 24.3142
    endloop
  endfacet
  facet normal 0.207912 0 -0.978148
    outer loop
      vertex -2.16897 -89 40.6363
      vertex -6.2 -67 39.7795
      vertex -2.16897 -6 40.6363
    endloop
  endfacet
  facet normal 0.207911 0 -0.978148
    outer loop
      vertex -6.4121 -67.5121 39.7344
      vertex -2.16897 -89 40.6363
      vertex -6.4121 -89 39.7344
    endloop
  endfacet
  facet normal 0.207907 -9.21784e-007 -0.978149
    outer loop
      vertex -2.16897 -89 40.6363
      vertex -6.4121 -67.5121 39.7344
      vertex -6.2 -67 39.7795
    endloop
  endfacet
  facet normal 0.207906 4.13532e-007 -0.978149
    outer loop
      vertex -6.4121 -66.4879 39.7344
      vertex -2.16897 -6 40.6363
      vertex -6.2 -67 39.7795
    endloop
  endfacet
  facet normal 0.207912 -6.16873e-008 -0.978147
    outer loop
      vertex -2.16897 -6 40.6363
      vertex -6.4121 -66.4879 39.7344
      vertex -6.4121 -6 39.7344
    endloop
  endfacet
  facet normal -0.587786 0 -0.809017
    outer loop
      vertex 10.375 -89 37.97
      vertex 13.8845 -2 35.4203
      vertex 13.8845 -89 35.4203
    endloop
  endfacet
  facet normal -0.587786 0 -0.809017
    outer loop
      vertex 13.8845 -2 35.4203
      vertex 10.375 -89 37.97
      vertex 10.375 -2 37.97
    endloop
  endfacet
  facet normal 0.866025 0 -0.5
    outer loop
      vertex -16.7871 -89 32.1965
      vertex -18.9561 -2 28.4398
      vertex -16.7871 -2 32.1965
    endloop
  endfacet
  facet normal 0.866025 0 -0.5
    outer loop
      vertex -18.9561 -2 28.4398
      vertex -16.7871 -89 32.1965
      vertex -18.9561 -89 28.4398
    endloop
  endfacet
  facet normal 0 -1 0
    outer loop
      vertex -2.83684 -2 67.4801
      vertex 0.964293 -2 67.9417
      vertex -0.964293 -2 67.9417
    endloop
  endfacet
  facet normal 0 -1 0
    outer loop
      vertex -2.83684 -2 67.4801
      vertex 2.83684 -2 67.4801
      vertex 0.964293 -2 67.9417
    endloop
  endfacet
  facet normal 0 -1 0
    outer loop
      vertex -4.54452 -2 66.5839
      vertex 2.83684 -2 67.4801
      vertex -2.83684 -2 67.4801
    endloop
  endfacet
  facet normal 0 -1 0
    outer loop
      vertex -4.54452 -2 66.5839
      vertex 4.54452 -2 66.5839
      vertex 2.83684 -2 67.4801
    endloop
  endfacet
  facet normal 0 -1 0
    outer loop
      vertex -5.98809 -2 65.305
      vertex 4.54452 -2 66.5839
      vertex -4.54452 -2 66.5839
    endloop
  endfacet
  facet normal 0 -1 0
    outer loop
      vertex -5.98809 -2 65.305
      vertex 5.98809 -2 65.305
      vertex 4.54452 -2 66.5839
    endloop
  endfacet
  facet normal 0 -1 0
    outer loop
      vertex -7.08365 -2 63.7178
      vertex 5.98809 -2 65.305
      vertex -5.98809 -2 65.305
    endloop
  endfacet
  facet normal 0 -1 0
    outer loop
      vertex -7.08365 -2 63.7178
      vertex 7.08365 -2 63.7178
      vertex 5.98809 -2 65.305
    endloop
  endfacet
  facet normal 0 -1 0
    outer loop
      vertex -7.76753 -2 61.9145
      vertex 7.08365 -2 63.7178
      vertex -7.08365 -2 63.7178
    endloop
  endfacet
  facet normal 0 -1 0
    outer loop
      vertex -7.76753 -2 61.9145
      vertex 7.76753 -2 61.9145
      vertex 7.08365 -2 63.7178
    endloop
  endfacet
  facet normal 0 -1 0
    outer loop
      vertex -8 -2 60
      vertex 7.76753 -2 61.9145
      vertex -7.76753 -2 61.9145
    endloop
  endfacet
  facet normal 0 -1 0
    outer loop
      vertex -8 -2 60
      vertex 8 -2 60
      vertex 7.76753 -2 61.9145
    endloop
  endfacet
  facet normal 0 -1 0
    outer loop
      vertex -8 -2 60
      vertex -5.5 -2 54
      vertex 8 -2 60
    endloop
  endfacet
  facet normal 0 -1 0
    outer loop
      vertex -8 -2 39.0274
      vertex -5.5 -2 54
      vertex -8 -2 60
    endloop
  endfacet
  facet normal 0 -1 0
    outer loop
      vertex -5.5 -2 27
      vertex -10.375 -2 37.97
      vertex -13.8845 -2 35.4203
    endloop
  endfacet
  facet normal 0 -1 0
    outer loop
      vertex -5.5 -2 27
      vertex -13.8845 -2 35.4203
      vertex -16.7871 -2 32.1965
    endloop
  endfacet
  facet normal 0 -1 0
    outer loop
      vertex -5.5 -2 27
      vertex -16.7871 -2 32.1965
      vertex -18.9561 -2 28.4398
    endloop
  endfacet
  facet normal 0 -1 0
    outer loop
      vertex -8 -2 39.0274
      vertex -5.5 -2 27
      vertex -5.5 -2 54
    endloop
  endfacet
  facet normal 0 -1 0
    outer loop
      vertex -10.375 -2 37.97
      vertex -5.5 -2 27
      vertex -8 -2 39.0274
    endloop
  endfacet
  facet normal 0 -1 0
    outer loop
      vertex -20.75 -2 20
      vertex -5.5 -2 27
      vertex -20.2966 -2 24.3142
    endloop
  endfacet
  facet normal 0 -1 0
    outer loop
      vertex -20.2966 -2 24.3142
      vertex -5.5 -2 27
      vertex -18.9561 -2 28.4398
    endloop
  endfacet
  facet normal 0 -1 0
    outer loop
      vertex 5.5 -2 54
      vertex 8 -2 60
      vertex -5.5 -2 54
    endloop
  endfacet
  facet normal 0 -1 0
    outer loop
      vertex 5.5 -2 54
      vertex 8 -2 39.0274
      vertex 8 -2 60
    endloop
  endfacet
  facet normal 0 -1 0
    outer loop
      vertex 5.5 -2 27
      vertex 10.375 -2 37.97
      vertex 8 -2 39.0274
    endloop
  endfacet
  facet normal 0 -1 -0
    outer loop
      vertex 10.375 -2 37.97
      vertex 5.5 -2 27
      vertex 13.8845 -2 35.4203
    endloop
  endfacet
  facet normal 0 -1 -0
    outer loop
      vertex 13.8845 -2 35.4203
      vertex 5.5 -2 27
      vertex 16.7871 -2 32.1965
    endloop
  endfacet
  facet normal 0 -1 0
    outer loop
      vertex 5.5 -2 27
      vertex 8 -2 39.0274
      vertex 5.5 -2 54
    endloop
  endfacet
  facet normal 0 -1 -0
    outer loop
      vertex 16.7871 -2 32.1965
      vertex 5.5 -2 27
      vertex 18.9561 -2 28.4398
    endloop
  endfacet
  facet normal 0 -1 0
    outer loop
      vertex 5.5 -2 27
      vertex 20.2966 -2 24.3142
      vertex 18.9561 -2 28.4398
    endloop
  endfacet
  facet normal 0 -1 0
    outer loop
      vertex -20.75 -2 4.44089e-016
      vertex -5.5 -2 27
      vertex -20.75 -2 20
    endloop
  endfacet
  facet normal 0 -1 -0
    outer loop
      vertex -5.5 -2 27
      vertex -20.75 -2 4.44089e-016
      vertex 5.5 -2 27
    endloop
  endfacet
  facet normal 0 -1 0
    outer loop
      vertex 5.5 -2 27
      vertex 20.75 -2 20
      vertex 20.2966 -2 24.3142
    endloop
  endfacet
  facet normal 0 -1 0
    outer loop
      vertex 20.75 -2 4.44089e-016
      vertex 5.5 -2 27
      vertex -20.75 -2 4.44089e-016
    endloop
  endfacet
  facet normal 0 -1 0
    outer loop
      vertex 5.5 -2 27
      vertex 20.75 -2 4.44089e-016
      vertex 20.75 -2 20
    endloop
  endfacet
  facet normal 0.587786 0 -0.809017
    outer loop
      vertex -13.8845 -89 35.4203
      vertex -10.375 -68.8062 37.97
      vertex -10.375 -89 37.97
    endloop
  endfacet
  facet normal 0.587797 -3.03288e-006 -0.809008
    outer loop
      vertex -10.375 -68.8062 37.97
      vertex -13.8845 -89 35.4203
      vertex -10.4678 -68.7678 37.9026
    endloop
  endfacet
  facet normal 0.587785 9.35907e-008 -0.809017
    outer loop
      vertex -10.4678 -68.7678 37.9026
      vertex -13.8845 -89 35.4203
      vertex -11.2 -67 37.3706
    endloop
  endfacet
  facet normal 0.587798 1.01557e-006 -0.809008
    outer loop
      vertex -13.8845 -2 35.4203
      vertex -10.375 -65.1938 37.97
      vertex -10.4678 -65.2322 37.9026
    endloop
  endfacet
  facet normal 0.587785 -3.72903e-008 -0.809017
    outer loop
      vertex -13.8845 -2 35.4203
      vertex -10.4678 -65.2322 37.9026
      vertex -11.2 -67 37.3706
    endloop
  endfacet
  facet normal 0.587785 0 -0.809017
    outer loop
      vertex -13.8845 -2 35.4203
      vertex -11.2 -67 37.3706
      vertex -13.8845 -89 35.4203
    endloop
  endfacet
  facet normal 0.587786 0 -0.809017
    outer loop
      vertex -10.375 -65.1938 37.97
      vertex -13.8845 -2 35.4203
      vertex -10.375 -2 37.97
    endloop
  endfacet
  facet normal -0.866025 0 -0.5
    outer loop
      vertex 18.9561 -89 28.4398
      vertex 16.7871 -2 32.1965
      vertex 18.9561 -2 28.4398
    endloop
  endfacet
  facet normal -0.866025 -0 -0.5
    outer loop
      vertex 16.7871 -2 32.1965
      vertex 18.9561 -89 28.4398
      vertex 16.7871 -89 32.1965
    endloop
  endfacet
  facet normal -0.951057 0 -0.309017
    outer loop
      vertex 20.2966 -89 24.3142
      vertex 18.9561 -2 28.4398
      vertex 20.2966 -2 24.3142
    endloop
  endfacet
  facet normal -0.951057 -0 -0.309017
    outer loop
      vertex 18.9561 -2 28.4398
      vertex 20.2966 -89 24.3142
      vertex 18.9561 -89 28.4398
    endloop
  endfacet
  facet normal -0.743145 0 -0.669131
    outer loop
      vertex 16.7871 -89 32.1965
      vertex 13.8845 -2 35.4203
      vertex 16.7871 -2 32.1965
    endloop
  endfacet
  facet normal -0.743145 -0 -0.669131
    outer loop
      vertex 13.8845 -2 35.4203
      vertex 16.7871 -89 32.1965
      vertex 13.8845 -89 35.4203
    endloop
  endfacet
  facet normal -0.207911 -4.49559e-008 -0.978148
    outer loop
      vertex 2.16897 -89 40.6363
      vertex 6.4121 -6 39.7344
      vertex 6.4121 -89 39.7344
    endloop
  endfacet
  facet normal -0.207912 0 -0.978147
    outer loop
      vertex 6.4121 -6 39.7344
      vertex 2.16897 -89 40.6363
      vertex 2.16897 -6 40.6363
    endloop
  endfacet
  facet normal 0 0 -1
    outer loop
      vertex -2.16897 -89 40.6363
      vertex 2.16897 -6 40.6363
      vertex 2.16897 -89 40.6363
    endloop
  endfacet
  facet normal -0 0 -1
    outer loop
      vertex 2.16897 -6 40.6363
      vertex -2.16897 -89 40.6363
      vertex -2.16897 -6 40.6363
    endloop
  endfacet
  facet normal -0.406737 0 -0.913545
    outer loop
      vertex 10.375 -89 37.97
      vertex 8 -6 39.0274
      vertex 10.375 -2 37.97
    endloop
  endfacet
  facet normal -0.406737 3.12048e-009 -0.913545
    outer loop
      vertex 6.4121 -89 39.7344
      vertex 8 -6 39.0274
      vertex 10.375 -89 37.97
    endloop
  endfacet
  facet normal -0.406735 -4.19868e-008 -0.913546
    outer loop
      vertex 8 -6 39.0274
      vertex 6.4121 -89 39.7344
      vertex 6.4121 -6 39.7344
    endloop
  endfacet
  facet normal -0.406737 0 -0.913545
    outer loop
      vertex 10.375 -2 37.97
      vertex 8 -6 39.0274
      vertex 8 -2 39.0274
    endloop
  endfacet
  facet normal 0.951057 0 -0.309017
    outer loop
      vertex -18.9561 -89 28.4398
      vertex -20.2966 -2 24.3142
      vertex -18.9561 -2 28.4398
    endloop
  endfacet
  facet normal 0.951057 0 -0.309017
    outer loop
      vertex -20.2966 -2 24.3142
      vertex -18.9561 -89 28.4398
      vertex -20.2966 -89 24.3142
    endloop
  endfacet
  facet normal 0.994522 0 -0.104529
    outer loop
      vertex -20.2966 -89 24.3142
      vertex -20.75 -2 20
      vertex -20.2966 -2 24.3142
    endloop
  endfacet
  facet normal 0.994522 0 -0.104529
    outer loop
      vertex -20.75 -2 20
      vertex -20.2966 -89 24.3142
      vertex -20.75 -89 20
    endloop
  endfacet
  facet normal 0.743145 0 -0.669131
    outer loop
      vertex -13.8845 -89 35.4203
      vertex -16.7871 -2 32.1965
      vertex -13.8845 -2 35.4203
    endloop
  endfacet
  facet normal 0.743145 0 -0.669131
    outer loop
      vertex -16.7871 -2 32.1965
      vertex -13.8845 -89 35.4203
      vertex -16.7871 -89 32.1965
    endloop
  endfacet
  facet normal 0.406739 0 -0.913544
    outer loop
      vertex -6.4121 -89 39.7344
      vertex -6.93223 -68.7678 39.5028
      vertex -6.4121 -67.5121 39.7344
    endloop
  endfacet
  facet normal 0.406736 -7.87805e-008 -0.913546
    outer loop
      vertex -6.4121 -89 39.7344
      vertex -8.7 -69.5 38.7158
      vertex -6.93223 -68.7678 39.5028
    endloop
  endfacet
  facet normal 0.406737 -5.70106e-009 -0.913545
    outer loop
      vertex -10.375 -89 37.97
      vertex -8.7 -69.5 38.7158
      vertex -6.4121 -89 39.7344
    endloop
  endfacet
  facet normal 0.406737 0 -0.913545
    outer loop
      vertex -8.7 -69.5 38.7158
      vertex -10.375 -89 37.97
      vertex -10.375 -68.8062 37.97
    endloop
  endfacet
  facet normal 0.406739 -5.76131e-008 -0.913545
    outer loop
      vertex -6.93223 -65.2322 39.5028
      vertex -6.4121 -6 39.7344
      vertex -6.4121 -66.4879 39.7344
    endloop
  endfacet
  facet normal 0.406736 -3.15239e-008 -0.913546
    outer loop
      vertex -8.7 -64.5 38.7158
      vertex -6.4121 -6 39.7344
      vertex -6.93223 -65.2322 39.5028
    endloop
  endfacet
  facet normal 0.406737 -4.74634e-008 -0.913545
    outer loop
      vertex -6.4121 -6 39.7344
      vertex -8.7 -64.5 38.7158
      vertex -8 -6 39.0274
    endloop
  endfacet
  facet normal 0.406737 -5.00402e-008 -0.913545
    outer loop
      vertex -10.375 -65.1938 37.97
      vertex -8 -6 39.0274
      vertex -8.7 -64.5 38.7158
    endloop
  endfacet
  facet normal 0.406736 0 -0.913546
    outer loop
      vertex -8 -6 39.0274
      vertex -10.375 -65.1938 37.97
      vertex -10.375 -2 37.97
    endloop
  endfacet
  facet normal 0.406736 0 -0.913546
    outer loop
      vertex -8 -6 39.0274
      vertex -10.375 -2 37.97
      vertex -8 -2 39.0274
    endloop
  endfacet
  facet normal 0 1 0
    outer loop
      vertex 1.5 -89 26.8
      vertex 2.16897 -89 40.6363
      vertex 6.4121 -89 39.7344
    endloop
  endfacet
  facet normal 0 1 0
    outer loop
      vertex 2.16897 -89 40.6363
      vertex 1.5 -89 26.8
      vertex -2.16897 -89 40.6363
    endloop
  endfacet
  facet normal 0 1 0
    outer loop
      vertex 1.5 -89 26.8
      vertex 6.4121 -89 39.7344
      vertex 10.375 -89 37.97
    endloop
  endfacet
  facet normal 0 1 0
    outer loop
      vertex -2.16897 -89 40.6363
      vertex 1.5 -89 26.8
      vertex -6.4121 -89 39.7344
    endloop
  endfacet
  facet normal 0 1 -0
    outer loop
      vertex 10.5 -89 26.8
      vertex 10.375 -89 37.97
      vertex 13.8845 -89 35.4203
    endloop
  endfacet
  facet normal 0 1 0
    outer loop
      vertex -6.4121 -89 39.7344
      vertex 1.5 -89 26.8
      vertex -10.375 -89 37.97
    endloop
  endfacet
  facet normal 0 1 0
    outer loop
      vertex 10.5 -89 26.8
      vertex 13.8845 -89 35.4203
      vertex 16.7871 -89 32.1965
    endloop
  endfacet
  facet normal 0 1 0
    outer loop
      vertex -10.375 -89 37.97
      vertex 1.5 -89 26.8
      vertex -13.8845 -89 35.4203
    endloop
  endfacet
  facet normal 0 1 0
    outer loop
      vertex 10.5 -89 26.8
      vertex 16.7871 -89 32.1965
      vertex 18.9561 -89 28.4398
    endloop
  endfacet
  facet normal 0 1 0
    outer loop
      vertex -13.8845 -89 35.4203
      vertex 1.5 -89 26.8
      vertex -16.7871 -89 32.1965
    endloop
  endfacet
  facet normal 0 1 0
    outer loop
      vertex 10.375 -89 37.97
      vertex 10.5 -89 26.8
      vertex 1.5 -89 26.8
    endloop
  endfacet
  facet normal 0 1 0
    outer loop
      vertex 10.5 -89 23.8
      vertex 18.9561 -89 28.4398
      vertex 20.2966 -89 24.3142
    endloop
  endfacet
  facet normal 0 1 0
    outer loop
      vertex 18.9561 -89 28.4398
      vertex 10.5 -89 23.8
      vertex 10.5 -89 26.8
    endloop
  endfacet
  facet normal 0 1 -0
    outer loop
      vertex 20.75 -89 1.9762e-014
      vertex 10.5 -89 23.8
      vertex 20.75 -89 20
    endloop
  endfacet
  facet normal 0 1 0
    outer loop
      vertex 20.75 -89 20
      vertex 10.5 -89 23.8
      vertex 20.2966 -89 24.3142
    endloop
  endfacet
  facet normal 0 1 -0
    outer loop
      vertex 1.5 -89 23.8
      vertex -16.7871 -89 32.1965
      vertex 1.5 -89 26.8
    endloop
  endfacet
  facet normal 0 1 0
    outer loop
      vertex -16.7871 -89 32.1965
      vertex 1.5 -89 23.8
      vertex -18.9561 -89 28.4398
    endloop
  endfacet
  facet normal 0 1 0
    outer loop
      vertex -18.9561 -89 28.4398
      vertex 1.5 -89 23.8
      vertex -20.2966 -89 24.3142
    endloop
  endfacet
  facet normal 0 1 0
    outer loop
      vertex 10.5 -89 23.8
      vertex 20.75 -89 1.9762e-014
      vertex 1.5 -89 23.8
    endloop
  endfacet
  facet normal 0 1 0
    outer loop
      vertex 1.5 -89 23.8
      vertex -20.75 -89 20
      vertex -20.2966 -89 24.3142
    endloop
  endfacet
  facet normal 0 1 0
    outer loop
      vertex -20.75 -89 1.9762e-014
      vertex 1.5 -89 23.8
      vertex 20.75 -89 1.9762e-014
    endloop
  endfacet
  facet normal 0 1 0
    outer loop
      vertex 1.5 -89 23.8
      vertex -20.75 -89 1.9762e-014
      vertex -20.75 -89 20
    endloop
  endfacet
  facet normal 1 -0 0
    outer loop
      vertex -20.75 -89 20
      vertex -20.75 -2 4.44089e-016
      vertex -20.75 -2 20
    endloop
  endfacet
  facet normal 1 0 0
    outer loop
      vertex -20.75 -2 4.44089e-016
      vertex -20.75 -89 20
      vertex -20.75 -89 1.9762e-014
    endloop
  endfacet
  facet normal -1 0 0
    outer loop
      vertex 20.75 -89 1.9762e-014
      vertex 20.75 -2 20
      vertex 20.75 -2 4.44089e-016
    endloop
  endfacet
  facet normal -1 -0 0
    outer loop
      vertex 20.75 -2 20
      vertex 20.75 -89 1.9762e-014
      vertex 20.75 -89 20
    endloop
  endfacet
  facet normal 0 -2.22045e-016 -1
    outer loop
      vertex 22.75 -91 2.02061e-014
      vertex 20.75 -89 1.9762e-014
      vertex 22.75 0 0
    endloop
  endfacet
  facet normal 0 -2.22045e-016 -1
    outer loop
      vertex 22.75 -91 2.02061e-014
      vertex -20.75 -89 1.9762e-014
      vertex 20.75 -89 1.9762e-014
    endloop
  endfacet
  facet normal 0 -2.22045e-016 -1
    outer loop
      vertex -20.75 -89 1.9762e-014
      vertex -22.75 -91 2.02061e-014
      vertex -20.75 -2 4.44089e-016
    endloop
  endfacet
  facet normal 0 -2.22045e-016 -1
    outer loop
      vertex -22.75 -91 2.02061e-014
      vertex -20.75 -89 1.9762e-014
      vertex 22.75 -91 2.02061e-014
    endloop
  endfacet
  facet normal 0 -2.22045e-016 -1
    outer loop
      vertex 20.75 -2 4.44089e-016
      vertex 22.75 0 0
      vertex 20.75 -89 1.9762e-014
    endloop
  endfacet
  facet normal 0 -2.22045e-016 -1
    outer loop
      vertex -20.75 -2 4.44089e-016
      vertex 22.75 0 0
      vertex 20.75 -2 4.44089e-016
    endloop
  endfacet
  facet normal 0 -2.22045e-016 -1
    outer loop
      vertex -20.75 -2 4.44089e-016
      vertex -22.75 0 0
      vertex 22.75 0 0
    endloop
  endfacet
  facet normal 0 -2.22045e-016 -1
    outer loop
      vertex -22.75 0 0
      vertex -20.75 -2 4.44089e-016
      vertex -22.75 -91 2.02061e-014
    endloop
  endfacet
  facet normal 1 -0 0
    outer loop
      vertex -8 -6 60
      vertex -8 -2 39.0274
      vertex -8 -2 60
    endloop
  endfacet
  facet normal 1 0 0
    outer loop
      vertex -8 -2 39.0274
      vertex -8 -6 60
      vertex -8 -6 39.0274
    endloop
  endfacet
  facet normal 0 1 0
    outer loop
      vertex 2.83684 -6 67.4801
      vertex -0.964293 -6 67.9417
      vertex 0.964293 -6 67.9417
    endloop
  endfacet
  facet normal 0 1 0
    outer loop
      vertex 2.83684 -6 67.4801
      vertex -2.83684 -6 67.4801
      vertex -0.964293 -6 67.9417
    endloop
  endfacet
  facet normal 0 1 0
    outer loop
      vertex 4.54452 -6 66.5839
      vertex -2.83684 -6 67.4801
      vertex 2.83684 -6 67.4801
    endloop
  endfacet
  facet normal 0 1 0
    outer loop
      vertex 4.54452 -6 66.5839
      vertex -4.54452 -6 66.5839
      vertex -2.83684 -6 67.4801
    endloop
  endfacet
  facet normal 0 1 0
    outer loop
      vertex 5.98809 -6 65.305
      vertex -4.54452 -6 66.5839
      vertex 4.54452 -6 66.5839
    endloop
  endfacet
  facet normal 0 1 0
    outer loop
      vertex 5.98809 -6 65.305
      vertex -5.98809 -6 65.305
      vertex -4.54452 -6 66.5839
    endloop
  endfacet
  facet normal 0 1 0
    outer loop
      vertex 7.08365 -6 63.7178
      vertex -5.98809 -6 65.305
      vertex 5.98809 -6 65.305
    endloop
  endfacet
  facet normal 0 1 0
    outer loop
      vertex 7.08365 -6 63.7178
      vertex -7.08365 -6 63.7178
      vertex -5.98809 -6 65.305
    endloop
  endfacet
  facet normal 0 1 0
    outer loop
      vertex 7.76753 -6 61.9145
      vertex -7.08365 -6 63.7178
      vertex 7.08365 -6 63.7178
    endloop
  endfacet
  facet normal 0 1 0
    outer loop
      vertex 7.76753 -6 61.9145
      vertex -7.76753 -6 61.9145
      vertex -7.08365 -6 63.7178
    endloop
  endfacet
  facet normal 0 1 0
    outer loop
      vertex 8 -6 60
      vertex -7.76753 -6 61.9145
      vertex 7.76753 -6 61.9145
    endloop
  endfacet
  facet normal 0 1 0
    outer loop
      vertex 8 -6 60
      vertex -8 -6 60
      vertex -7.76753 -6 61.9145
    endloop
  endfacet
  facet normal 0 1 0
    outer loop
      vertex 8 -6 60
      vertex 2.16897 -6 40.6363
      vertex -8 -6 60
    endloop
  endfacet
  facet normal 0 1 0
    outer loop
      vertex 8 -6 60
      vertex 6.4121 -6 39.7344
      vertex 2.16897 -6 40.6363
    endloop
  endfacet
  facet normal -0 1 0
    outer loop
      vertex 6.4121 -6 39.7344
      vertex 8 -6 60
      vertex 8 -6 39.0274
    endloop
  endfacet
  facet normal 0 1 -0
    outer loop
      vertex -2.16897 -6 40.6363
      vertex -8 -6 60
      vertex 2.16897 -6 40.6363
    endloop
  endfacet
  facet normal 0 1 -0
    outer loop
      vertex -6.4121 -6 39.7344
      vertex -8 -6 60
      vertex -2.16897 -6 40.6363
    endloop
  endfacet
  facet normal 0 1 0
    outer loop
      vertex -8 -6 60
      vertex -6.4121 -6 39.7344
      vertex -8 -6 39.0274
    endloop
  endfacet
  facet normal -1 0 0
    outer loop
      vertex 8 -6 39.0274
      vertex 8 -2 60
      vertex 8 -2 39.0274
    endloop
  endfacet
  facet normal -1 -0 0
    outer loop
      vertex 8 -2 60
      vertex 8 -6 39.0274
      vertex 8 -6 60
    endloop
  endfacet
  facet normal -0.992709 0 -0.120537
    outer loop
      vertex 8 -6 60
      vertex 7.76753 -2 61.9145
      vertex 8 -2 60
    endloop
  endfacet
  facet normal -0.992709 -0 -0.120537
    outer loop
      vertex 7.76753 -2 61.9145
      vertex 8 -6 60
      vertex 7.76753 -6 61.9145
    endloop
  endfacet
  facet normal 0.239315 0 -0.970942
    outer loop
      vertex -2.83684 -6 67.4801
      vertex -0.964293 -2 67.9417
      vertex -0.964293 -6 67.9417
    endloop
  endfacet
  facet normal 0.239315 0 -0.970942
    outer loop
      vertex -0.964293 -2 67.9417
      vertex -2.83684 -6 67.4801
      vertex -2.83684 -2 67.4801
    endloop
  endfacet
  facet normal -0.663123 0 -0.74851
    outer loop
      vertex 4.54452 -6 66.5839
      vertex 5.98809 -2 65.305
      vertex 5.98809 -6 65.305
    endloop
  endfacet
  facet normal -0.663123 0 -0.74851
    outer loop
      vertex 5.98809 -2 65.305
      vertex 4.54452 -6 66.5839
      vertex 4.54452 -2 66.5839
    endloop
  endfacet
  facet normal 0.822983 0 -0.568065
    outer loop
      vertex -5.98809 -6 65.305
      vertex -7.08365 -2 63.7178
      vertex -5.98809 -2 65.305
    endloop
  endfacet
  facet normal 0.822983 0 -0.568065
    outer loop
      vertex -7.08365 -2 63.7178
      vertex -5.98809 -6 65.305
      vertex -7.08365 -6 63.7178
    endloop
  endfacet
  facet normal 0.663123 0 -0.74851
    outer loop
      vertex -5.98809 -6 65.305
      vertex -4.54452 -2 66.5839
      vertex -4.54452 -6 66.5839
    endloop
  endfacet
  facet normal 0.663123 0 -0.74851
    outer loop
      vertex -4.54452 -2 66.5839
      vertex -5.98809 -6 65.305
      vertex -5.98809 -2 65.305
    endloop
  endfacet
  facet normal -0.822983 0 -0.568065
    outer loop
      vertex 7.08365 -6 63.7178
      vertex 5.98809 -2 65.305
      vertex 7.08365 -2 63.7178
    endloop
  endfacet
  facet normal -0.822983 -0 -0.568065
    outer loop
      vertex 5.98809 -2 65.305
      vertex 7.08365 -6 63.7178
      vertex 5.98809 -6 65.305
    endloop
  endfacet
  facet normal -0.935016 0 -0.354605
    outer loop
      vertex 7.76753 -6 61.9145
      vertex 7.08365 -2 63.7178
      vertex 7.76753 -2 61.9145
    endloop
  endfacet
  facet normal -0.935016 -0 -0.354605
    outer loop
      vertex 7.08365 -2 63.7178
      vertex 7.76753 -6 61.9145
      vertex 7.08365 -6 63.7178
    endloop
  endfacet
  facet normal -0.239315 0 -0.970942
    outer loop
      vertex 0.964293 -6 67.9417
      vertex 2.83684 -2 67.4801
      vertex 2.83684 -6 67.4801
    endloop
  endfacet
  facet normal -0.239315 0 -0.970942
    outer loop
      vertex 2.83684 -2 67.4801
      vertex 0.964293 -6 67.9417
      vertex 0.964293 -2 67.9417
    endloop
  endfacet
  facet normal 0 0 -1
    outer loop
      vertex -0.964293 -6 67.9417
      vertex 0.964293 -2 67.9417
      vertex 0.964293 -6 67.9417
    endloop
  endfacet
  facet normal -0 0 -1
    outer loop
      vertex 0.964293 -2 67.9417
      vertex -0.964293 -6 67.9417
      vertex -0.964293 -2 67.9417
    endloop
  endfacet
  facet normal -0.464725 0 -0.885455
    outer loop
      vertex 2.83684 -6 67.4801
      vertex 4.54452 -2 66.5839
      vertex 4.54452 -6 66.5839
    endloop
  endfacet
  facet normal -0.464725 0 -0.885455
    outer loop
      vertex 4.54452 -2 66.5839
      vertex 2.83684 -6 67.4801
      vertex 2.83684 -2 67.4801
    endloop
  endfacet
  facet normal 0.935016 0 -0.354605
    outer loop
      vertex -7.08365 -6 63.7178
      vertex -7.76753 -2 61.9145
      vertex -7.08365 -2 63.7178
    endloop
  endfacet
  facet normal 0.935016 0 -0.354605
    outer loop
      vertex -7.76753 -2 61.9145
      vertex -7.08365 -6 63.7178
      vertex -7.76753 -6 61.9145
    endloop
  endfacet
  facet normal 0.992709 0 -0.120537
    outer loop
      vertex -7.76753 -6 61.9145
      vertex -8 -2 60
      vertex -7.76753 -2 61.9145
    endloop
  endfacet
  facet normal 0.992709 0 -0.120537
    outer loop
      vertex -8 -2 60
      vertex -7.76753 -6 61.9145
      vertex -8 -6 60
    endloop
  endfacet
  facet normal 0.464725 0 -0.885455
    outer loop
      vertex -4.54452 -6 66.5839
      vertex -2.83684 -2 67.4801
      vertex -2.83684 -6 67.4801
    endloop
  endfacet
  facet normal 0.464725 0 -0.885455
    outer loop
      vertex -2.83684 -2 67.4801
      vertex -4.54452 -6 66.5839
      vertex -4.54452 -2 66.5839
    endloop
  endfacet
  facet normal 0.866026 -0 0.5
    outer loop
      vertex 18.4051 -91 33.3721
      vertex 20.7832 6.49553e-015 29.2533
      vertex 18.4051 7.4101e-015 33.3721
    endloop
  endfacet
  facet normal 0.866026 0 0.5
    outer loop
      vertex 20.7832 6.49553e-015 29.2533
      vertex 18.4051 -91 33.3721
      vertex 20.7832 -91 29.2533
    endloop
  endfacet
  facet normal 0 1 -2.22045e-016
    outer loop
      vertex 5.5 1.19904e-014 54
      vertex 1.04528 1.5531e-014 69.9452
      vertex 3.09017 1.54344e-014 69.5106
    endloop
  endfacet
  facet normal 0 1 -2.22045e-016
    outer loop
      vertex 1.04528 1.5531e-014 69.9452
      vertex 5.5 1.19904e-014 54
      vertex -1.04528 1.5531e-014 69.9452
    endloop
  endfacet
  facet normal 0 1 -2.22045e-016
    outer loop
      vertex 5.5 1.19904e-014 54
      vertex 3.09017 1.54344e-014 69.5106
      vertex 5 1.52456e-014 68.6603
    endloop
  endfacet
  facet normal 0 1 -2.22045e-016
    outer loop
      vertex -5.5 1.19904e-014 54
      vertex -1.04528 1.5531e-014 69.9452
      vertex 5.5 1.19904e-014 54
    endloop
  endfacet
  facet normal 0 1 -2.22045e-016
    outer loop
      vertex 5.5 1.19904e-014 54
      vertex 5 1.52456e-014 68.6603
      vertex 6.69131 1.49728e-014 67.4314
    endloop
  endfacet
  facet normal 0 1 -2.22045e-016
    outer loop
      vertex -1.04528 1.5531e-014 69.9452
      vertex -5.5 1.19904e-014 54
      vertex -3.09017 1.54344e-014 69.5106
    endloop
  endfacet
  facet normal 0 1 -2.22045e-016
    outer loop
      vertex 5.5 1.19904e-014 54
      vertex 6.69131 1.49728e-014 67.4314
      vertex 8.09017 1.46278e-014 65.8779
    endloop
  endfacet
  facet normal 0 1 -2.22045e-016
    outer loop
      vertex -3.09017 1.54344e-014 69.5106
      vertex -5.5 1.19904e-014 54
      vertex -5 1.52456e-014 68.6603
    endloop
  endfacet
  facet normal 0 1 -2.22045e-016
    outer loop
      vertex 5.5 1.19904e-014 54
      vertex 8.09017 1.46278e-014 65.8779
      vertex 9.13545 1.42258e-014 64.0674
    endloop
  endfacet
  facet normal 0 1 -2.22045e-016
    outer loop
      vertex -5 1.52456e-014 68.6603
      vertex -5.5 1.19904e-014 54
      vertex -6.69131 1.49728e-014 67.4314
    endloop
  endfacet
  facet normal 0 1 -2.22045e-016
    outer loop
      vertex 5.5 1.19904e-014 54
      vertex 9.13545 1.42258e-014 64.0674
      vertex 9.78148 1.37843e-014 62.0791
    endloop
  endfacet
  facet normal 0 1 -2.22045e-016
    outer loop
      vertex -6.69131 1.49728e-014 67.4314
      vertex -5.5 1.19904e-014 54
      vertex -8.09017 1.46278e-014 65.8779
    endloop
  endfacet
  facet normal 0 1 -2.22045e-016
    outer loop
      vertex 5.5 1.19904e-014 54
      vertex 9.78148 1.37843e-014 62.0791
      vertex 10 1.33227e-014 60
    endloop
  endfacet
  facet normal 0 1 -2.22045e-016
    outer loop
      vertex -8.09017 1.46278e-014 65.8779
      vertex -5.5 1.19904e-014 54
      vertex -9.13545 1.42258e-014 64.0674
    endloop
  endfacet
  facet normal 0 1 -2.22045e-016
    outer loop
      vertex -9.13545 1.42258e-014 64.0674
      vertex -5.5 1.19904e-014 54
      vertex -9.78148 1.37843e-014 62.0791
    endloop
  endfacet
  facet normal 0 1 -2.22045e-016
    outer loop
      vertex 10 8.95157e-015 40.3143
      vertex 5.5 1.19904e-014 54
      vertex 10 1.33227e-014 60
    endloop
  endfacet
  facet normal 0 1 -2.22045e-016
    outer loop
      vertex 5.5 5.9952e-015 27
      vertex 11.375 8.81563e-015 39.7021
      vertex 15.2227 8.1949e-015 36.9065
    endloop
  endfacet
  facet normal 0 1 -2.22045e-016
    outer loop
      vertex 5.5 5.9952e-015 27
      vertex 15.2227 8.1949e-015 36.9065
      vertex 18.4051 7.4101e-015 33.3721
    endloop
  endfacet
  facet normal 0 1 -2.22045e-016
    outer loop
      vertex 5.5 5.9952e-015 27
      vertex 18.4051 7.4101e-015 33.3721
      vertex 20.7832 6.49553e-015 29.2533
    endloop
  endfacet
  facet normal 0 1 -2.22045e-016
    outer loop
      vertex 10 8.95157e-015 40.3143
      vertex 5.5 5.9952e-015 27
      vertex 5.5 1.19904e-014 54
    endloop
  endfacet
  facet normal 0 1 -2.22045e-016
    outer loop
      vertex 11.375 8.81563e-015 39.7021
      vertex 5.5 5.9952e-015 27
      vertex 10 8.95157e-015 40.3143
    endloop
  endfacet
  facet normal 0 1 -2.22045e-016
    outer loop
      vertex 22.75 4.44089e-015 20
      vertex 5.5 5.9952e-015 27
      vertex 22.2529 5.49116e-015 24.73
    endloop
  endfacet
  facet normal 0 1 -2.22045e-016
    outer loop
      vertex 22.2529 5.49116e-015 24.73
      vertex 5.5 5.9952e-015 27
      vertex 20.7832 6.49553e-015 29.2533
    endloop
  endfacet
  facet normal 0 1 -2.22045e-016
    outer loop
      vertex -9.78148 1.37843e-014 62.0791
      vertex -5.5 1.19904e-014 54
      vertex -10 1.33227e-014 60
    endloop
  endfacet
  facet normal 0 1 -2.22045e-016
    outer loop
      vertex -5.5 1.19904e-014 54
      vertex -10 8.95157e-015 40.3143
      vertex -10 1.33227e-014 60
    endloop
  endfacet
  facet normal 0 1 -2.22045e-016
    outer loop
      vertex -5.5 5.9952e-015 27
      vertex -11.375 8.81563e-015 39.7021
      vertex -10 8.95157e-015 40.3143
    endloop
  endfacet
  facet normal 0 1 -2.22045e-016
    outer loop
      vertex -11.375 8.81563e-015 39.7021
      vertex -5.5 5.9952e-015 27
      vertex -15.2227 8.1949e-015 36.9065
    endloop
  endfacet
  facet normal 0 1 -2.22045e-016
    outer loop
      vertex -15.2227 8.1949e-015 36.9065
      vertex -5.5 5.9952e-015 27
      vertex -18.4051 7.4101e-015 33.3721
    endloop
  endfacet
  facet normal 0 1 -2.22045e-016
    outer loop
      vertex -5.5 5.9952e-015 27
      vertex -10 8.95157e-015 40.3143
      vertex -5.5 1.19904e-014 54
    endloop
  endfacet
  facet normal 0 1 -2.22045e-016
    outer loop
      vertex -18.4051 7.4101e-015 33.3721
      vertex -5.5 5.9952e-015 27
      vertex -20.7832 6.49553e-015 29.2533
    endloop
  endfacet
  facet normal 0 1 -2.22045e-016
    outer loop
      vertex -5.5 5.9952e-015 27
      vertex -22.2529 5.49116e-015 24.73
      vertex -20.7832 6.49553e-015 29.2533
    endloop
  endfacet
  facet normal 0 1 -2.22045e-016
    outer loop
      vertex 22.75 0 0
      vertex 5.5 5.9952e-015 27
      vertex 22.75 4.44089e-015 20
    endloop
  endfacet
  facet normal 0 1 -2.22045e-016
    outer loop
      vertex 5.5 5.9952e-015 27
      vertex 22.75 0 0
      vertex -5.5 5.9952e-015 27
    endloop
  endfacet
  facet normal 0 1 -2.22045e-016
    outer loop
      vertex -5.5 5.9952e-015 27
      vertex -22.75 4.44089e-015 20
      vertex -22.2529 5.49116e-015 24.73
    endloop
  endfacet
  facet normal 0 1 -2.22045e-016
    outer loop
      vertex -22.75 0 0
      vertex -5.5 5.9952e-015 27
      vertex 22.75 0 0
    endloop
  endfacet
  facet normal 0 1 -2.22045e-016
    outer loop
      vertex -5.5 5.9952e-015 27
      vertex -22.75 0 0
      vertex -22.75 4.44089e-015 20
    endloop
  endfacet
  facet normal 0.743145 -0 0.669131
    outer loop
      vertex 15.2227 -91 36.9065
      vertex 18.4051 7.4101e-015 33.3721
      vertex 15.2227 8.1949e-015 36.9065
    endloop
  endfacet
  facet normal 0.743145 0 0.669131
    outer loop
      vertex 18.4051 7.4101e-015 33.3721
      vertex 15.2227 -91 36.9065
      vertex 18.4051 -91 33.3721
    endloop
  endfacet
  facet normal 0.207912 0 0.978148
    outer loop
      vertex 2.37802 -8 42.6254
      vertex 7.03014 -91 41.6365
      vertex 7.03014 -8 41.6365
    endloop
  endfacet
  facet normal 0.207912 0 0.978148
    outer loop
      vertex 7.03014 -91 41.6365
      vertex 2.37802 -8 42.6254
      vertex 2.37802 -91 42.6254
    endloop
  endfacet
  facet normal -0.587786 0 0.809017
    outer loop
      vertex -15.2227 8.1949e-015 36.9065
      vertex -11.375 -91 39.7021
      vertex -11.375 8.81563e-015 39.7021
    endloop
  endfacet
  facet normal -0.587786 0 0.809017
    outer loop
      vertex -11.375 -91 39.7021
      vertex -15.2227 8.1949e-015 36.9065
      vertex -15.2227 -91 36.9065
    endloop
  endfacet
  facet normal -0.951056 0 0.309017
    outer loop
      vertex -22.2529 -91 24.73
      vertex -20.7832 6.49553e-015 29.2533
      vertex -22.2529 5.49116e-015 24.73
    endloop
  endfacet
  facet normal -0.951056 0 0.309017
    outer loop
      vertex -20.7832 6.49553e-015 29.2533
      vertex -22.2529 -91 24.73
      vertex -20.7832 -91 29.2533
    endloop
  endfacet
  facet normal -0.743145 0 0.669131
    outer loop
      vertex -18.4051 -91 33.3721
      vertex -15.2227 8.1949e-015 36.9065
      vertex -18.4051 7.4101e-015 33.3721
    endloop
  endfacet
  facet normal -0.743145 0 0.669131
    outer loop
      vertex -15.2227 8.1949e-015 36.9065
      vertex -18.4051 -91 33.3721
      vertex -15.2227 -91 36.9065
    endloop
  endfacet
  facet normal 0.951056 -0 0.309017
    outer loop
      vertex 20.7832 -91 29.2533
      vertex 22.2529 5.49116e-015 24.73
      vertex 20.7832 6.49553e-015 29.2533
    endloop
  endfacet
  facet normal 0.951056 0 0.309017
    outer loop
      vertex 22.2529 5.49116e-015 24.73
      vertex 20.7832 -91 29.2533
      vertex 22.2529 -91 24.73
    endloop
  endfacet
  facet normal 0.587786 0 0.809017
    outer loop
      vertex 11.375 8.81563e-015 39.7021
      vertex 15.2227 -91 36.9065
      vertex 15.2227 8.1949e-015 36.9065
    endloop
  endfacet
  facet normal 0.587786 0 0.809017
    outer loop
      vertex 15.2227 -91 36.9065
      vertex 11.375 8.81563e-015 39.7021
      vertex 11.375 -91 39.7021
    endloop
  endfacet
  facet normal -0.207911 0 0.978148
    outer loop
      vertex -2.37802 -8 42.6254
      vertex -6.2 -67 41.813
      vertex -2.37802 -91 42.6254
    endloop
  endfacet
  facet normal -0.207914 2.01245e-007 0.978147
    outer loop
      vertex -2.37802 -8 42.6254
      vertex -6.93223 -65.2322 41.6573
      vertex -6.2 -67 41.813
    endloop
  endfacet
  facet normal -0.207912 0 0.978148
    outer loop
      vertex -7.03014 -65.1917 41.6365
      vertex -2.37802 -8 42.6254
      vertex -7.03014 -8 41.6365
    endloop
  endfacet
  facet normal -0.207904 -6.47054e-007 0.978149
    outer loop
      vertex -2.37802 -8 42.6254
      vertex -7.03014 -65.1917 41.6365
      vertex -6.93223 -65.2322 41.6573
    endloop
  endfacet
  facet normal -0.207914 -4.13227e-007 0.978147
    outer loop
      vertex -6.93223 -68.7678 41.6573
      vertex -2.37802 -91 42.6254
      vertex -6.2 -67 41.813
    endloop
  endfacet
  facet normal -0.207905 1.58604e-006 0.978149
    outer loop
      vertex -7.03014 -68.8083 41.6365
      vertex -2.37802 -91 42.6254
      vertex -6.93223 -68.7678 41.6573
    endloop
  endfacet
  facet normal -0.207912 0 0.978148
    outer loop
      vertex -2.37802 -91 42.6254
      vertex -7.03014 -68.8083 41.6365
      vertex -7.03014 -91 41.6365
    endloop
  endfacet
  facet normal 0.406735 -0 0.913546
    outer loop
      vertex 10 -8 40.3143
      vertex 11.375 8.81563e-015 39.7021
      vertex 10 8.95157e-015 40.3143
    endloop
  endfacet
  facet normal 0.406735 0 0.913546
    outer loop
      vertex 11.375 8.81563e-015 39.7021
      vertex 10 -8 40.3143
      vertex 11.375 -91 39.7021
    endloop
  endfacet
  facet normal 0.406737 -0 0.913545
    outer loop
      vertex 7.03014 -91 41.6365
      vertex 10 -8 40.3143
      vertex 7.03014 -8 41.6365
    endloop
  endfacet
  facet normal 0.406736 2.55872e-008 0.913546
    outer loop
      vertex 10 -8 40.3143
      vertex 7.03014 -91 41.6365
      vertex 11.375 -91 39.7021
    endloop
  endfacet
  facet normal -0.866026 0 0.5
    outer loop
      vertex -20.7832 -91 29.2533
      vertex -18.4051 7.4101e-015 33.3721
      vertex -20.7832 6.49553e-015 29.2533
    endloop
  endfacet
  facet normal -0.866026 0 0.5
    outer loop
      vertex -18.4051 7.4101e-015 33.3721
      vertex -20.7832 -91 29.2533
      vertex -18.4051 -91 33.3721
    endloop
  endfacet
  facet normal -0.406735 0 0.913546
    outer loop
      vertex -11.375 8.81563e-015 39.7021
      vertex -10 -8 40.3143
      vertex -10 8.95157e-015 40.3143
    endloop
  endfacet
  facet normal -0.406735 -4.11789e-008 0.913546
    outer loop
      vertex -11.2 -67 39.78
      vertex -10 -8 40.3143
      vertex -11.375 8.81563e-015 39.7021
    endloop
  endfacet
  facet normal -0.406737 1.67692e-009 0.913545
    outer loop
      vertex -10 -8 40.3143
      vertex -11.2 -67 39.78
      vertex -10.4678 -65.2322 40.106
    endloop
  endfacet
  facet normal -0.406737 0 0.913545
    outer loop
      vertex -7.03014 -8 41.6365
      vertex -8.7 -64.5 40.8931
      vertex -7.03014 -65.1917 41.6365
    endloop
  endfacet
  facet normal -0.406737 -2.19641e-008 0.913545
    outer loop
      vertex -10 -8 40.3143
      vertex -8.7 -64.5 40.8931
      vertex -7.03014 -8 41.6365
    endloop
  endfacet
  facet normal -0.406736 -6.74585e-009 0.913546
    outer loop
      vertex -8.7 -64.5 40.8931
      vertex -10 -8 40.3143
      vertex -10.4678 -65.2322 40.106
    endloop
  endfacet
  facet normal -0.406737 0 0.913545
    outer loop
      vertex -8.7 -69.5 40.8931
      vertex -7.03014 -91 41.6365
      vertex -7.03014 -68.8083 41.6365
    endloop
  endfacet
  facet normal -0.406736 9.72346e-008 0.913546
    outer loop
      vertex -11.375 -91 39.7021
      vertex -8.7 -69.5 40.8931
      vertex -10.4678 -68.7678 40.106
    endloop
  endfacet
  facet normal -0.406737 1.28038e-007 0.913545
    outer loop
      vertex -11.375 -91 39.7021
      vertex -10.4678 -68.7678 40.106
      vertex -11.2 -67 39.78
    endloop
  endfacet
  facet normal -0.406736 1.06326e-007 0.913546
    outer loop
      vertex -8.7 -69.5 40.8931
      vertex -11.375 -91 39.7021
      vertex -7.03014 -91 41.6365
    endloop
  endfacet
  facet normal -0.406722 0 0.913552
    outer loop
      vertex -11.375 -91 39.7021
      vertex -11.2 -67 39.78
      vertex -11.375 8.81563e-015 39.7021
    endloop
  endfacet
  facet normal 0.994522 -0 0.104529
    outer loop
      vertex 22.2529 -91 24.73
      vertex 22.75 4.44089e-015 20
      vertex 22.2529 5.49116e-015 24.73
    endloop
  endfacet
  facet normal 0.994522 0 0.104529
    outer loop
      vertex 22.75 4.44089e-015 20
      vertex 22.2529 -91 24.73
      vertex 22.75 -91 20
    endloop
  endfacet
  facet normal -0 0 1
    outer loop
      vertex -2.37802 -8 42.6254
      vertex 2.37802 -91 42.6254
      vertex 2.37802 -8 42.6254
    endloop
  endfacet
  facet normal 0 0 1
    outer loop
      vertex 2.37802 -91 42.6254
      vertex -2.37802 -8 42.6254
      vertex -2.37802 -91 42.6254
    endloop
  endfacet
  facet normal 0 -1 0
    outer loop
      vertex 1.5 -91 26.8
      vertex -2.37802 -91 42.6254
      vertex -7.03014 -91 41.6365
    endloop
  endfacet
  facet normal 0 -1 0
    outer loop
      vertex -2.37802 -91 42.6254
      vertex 1.5 -91 26.8
      vertex 2.37802 -91 42.6254
    endloop
  endfacet
  facet normal 0 -1 0
    outer loop
      vertex 1.5 -91 26.8
      vertex -7.03014 -91 41.6365
      vertex -11.375 -91 39.7021
    endloop
  endfacet
  facet normal 0 -1 -0
    outer loop
      vertex 2.37802 -91 42.6254
      vertex 1.5 -91 26.8
      vertex 7.03014 -91 41.6365
    endloop
  endfacet
  facet normal 0 -1 0
    outer loop
      vertex 1.5 -91 26.8
      vertex -11.375 -91 39.7021
      vertex -15.2227 -91 36.9065
    endloop
  endfacet
  facet normal 0 -1 -0
    outer loop
      vertex 7.03014 -91 41.6365
      vertex 1.5 -91 26.8
      vertex 11.375 -91 39.7021
    endloop
  endfacet
  facet normal 0 -1 0
    outer loop
      vertex 1.5 -91 26.8
      vertex -15.2227 -91 36.9065
      vertex -18.4051 -91 33.3721
    endloop
  endfacet
  facet normal 0 -1 0
    outer loop
      vertex 10.5 -91 26.8
      vertex 11.375 -91 39.7021
      vertex 1.5 -91 26.8
    endloop
  endfacet
  facet normal 0 -1 0
    outer loop
      vertex 1.5 -91 26.8
      vertex -18.4051 -91 33.3721
      vertex -20.7832 -91 29.2533
    endloop
  endfacet
  facet normal 0 -1 -0
    outer loop
      vertex 11.375 -91 39.7021
      vertex 10.5 -91 26.8
      vertex 15.2227 -91 36.9065
    endloop
  endfacet
  facet normal 0 -1 -0
    outer loop
      vertex 15.2227 -91 36.9065
      vertex 10.5 -91 26.8
      vertex 18.4051 -91 33.3721
    endloop
  endfacet
  facet normal 0 -1 0
    outer loop
      vertex 1.5 -91 23.8
      vertex -20.7832 -91 29.2533
      vertex -22.2529 -91 24.73
    endloop
  endfacet
  facet normal 0 -1 0
    outer loop
      vertex -20.7832 -91 29.2533
      vertex 1.5 -91 23.8
      vertex 1.5 -91 26.8
    endloop
  endfacet
  facet normal 0 -1 0
    outer loop
      vertex -22.75 -91 2.02061e-014
      vertex 1.5 -91 23.8
      vertex -22.75 -91 20
    endloop
  endfacet
  facet normal 0 -1 0
    outer loop
      vertex -22.75 -91 20
      vertex 1.5 -91 23.8
      vertex -22.2529 -91 24.73
    endloop
  endfacet
  facet normal 0 -1 -0
    outer loop
      vertex 18.4051 -91 33.3721
      vertex 10.5 -91 26.8
      vertex 20.7832 -91 29.2533
    endloop
  endfacet
  facet normal 0 -1 0
    outer loop
      vertex 10.5 -91 26.8
      vertex 22.2529 -91 24.73
      vertex 20.7832 -91 29.2533
    endloop
  endfacet
  facet normal 0 -1 0
    outer loop
      vertex 10.5 -91 23.8
      vertex 22.2529 -91 24.73
      vertex 10.5 -91 26.8
    endloop
  endfacet
  facet normal 0 -1 0
    outer loop
      vertex 22.75 -91 2.02061e-014
      vertex 1.5 -91 23.8
      vertex -22.75 -91 2.02061e-014
    endloop
  endfacet
  facet normal 0 -1 0
    outer loop
      vertex 10.5 -91 23.8
      vertex 22.75 -91 20
      vertex 22.2529 -91 24.73
    endloop
  endfacet
  facet normal 0 -1 0
    outer loop
      vertex 1.5 -91 23.8
      vertex 22.75 -91 2.02061e-014
      vertex 10.5 -91 23.8
    endloop
  endfacet
  facet normal 0 -1 0
    outer loop
      vertex 10.5 -91 23.8
      vertex 22.75 -91 2.02061e-014
      vertex 22.75 -91 20
    endloop
  endfacet
  facet normal -0.994522 0 0.104529
    outer loop
      vertex -22.75 -91 20
      vertex -22.2529 5.49116e-015 24.73
      vertex -22.75 4.44089e-015 20
    endloop
  endfacet
  facet normal -0.994522 0 0.104529
    outer loop
      vertex -22.2529 5.49116e-015 24.73
      vertex -22.75 -91 20
      vertex -22.2529 -91 24.73
    endloop
  endfacet
  facet normal -1 0 0
    outer loop
      vertex -22.75 -91 2.02061e-014
      vertex -22.75 4.44089e-015 20
      vertex -22.75 0 0
    endloop
  endfacet
  facet normal -1 -0 0
    outer loop
      vertex -22.75 4.44089e-015 20
      vertex -22.75 -91 2.02061e-014
      vertex -22.75 -91 20
    endloop
  endfacet
  facet normal 1 -0 0
    outer loop
      vertex 22.75 -91 20
      vertex 22.75 0 0
      vertex 22.75 4.44089e-015 20
    endloop
  endfacet
  facet normal 1 0 0
    outer loop
      vertex 22.75 0 0
      vertex 22.75 -91 20
      vertex 22.75 -91 2.02061e-014
    endloop
  endfacet
  facet normal -1 0 0
    outer loop
      vertex -10 -8 40.3143
      vertex -10 1.33227e-014 60
      vertex -10 8.95157e-015 40.3143
    endloop
  endfacet
  facet normal -1 -0 0
    outer loop
      vertex -10 1.33227e-014 60
      vertex -10 -8 40.3143
      vertex -10 -8 60
    endloop
  endfacet
  facet normal 0 -1 0
    outer loop
      vertex -3.09017 -8 69.5106
      vertex 1.04528 -8 69.9452
      vertex -1.04528 -8 69.9452
    endloop
  endfacet
  facet normal 0 -1 0
    outer loop
      vertex -3.09017 -8 69.5106
      vertex 3.09017 -8 69.5106
      vertex 1.04528 -8 69.9452
    endloop
  endfacet
  facet normal 0 -1 0
    outer loop
      vertex -5 -8 68.6603
      vertex 3.09017 -8 69.5106
      vertex -3.09017 -8 69.5106
    endloop
  endfacet
  facet normal 0 -1 0
    outer loop
      vertex -5 -8 68.6603
      vertex 5 -8 68.6603
      vertex 3.09017 -8 69.5106
    endloop
  endfacet
  facet normal 0 -1 0
    outer loop
      vertex -6.69131 -8 67.4314
      vertex 5 -8 68.6603
      vertex -5 -8 68.6603
    endloop
  endfacet
  facet normal 0 -1 0
    outer loop
      vertex -6.69131 -8 67.4314
      vertex 6.69131 -8 67.4314
      vertex 5 -8 68.6603
    endloop
  endfacet
  facet normal 0 -1 0
    outer loop
      vertex -8.09017 -8 65.8779
      vertex 6.69131 -8 67.4314
      vertex -6.69131 -8 67.4314
    endloop
  endfacet
  facet normal 0 -1 0
    outer loop
      vertex -8.09017 -8 65.8779
      vertex 8.09017 -8 65.8779
      vertex 6.69131 -8 67.4314
    endloop
  endfacet
  facet normal 0 -1 0
    outer loop
      vertex -9.13545 -8 64.0674
      vertex 8.09017 -8 65.8779
      vertex -8.09017 -8 65.8779
    endloop
  endfacet
  facet normal 0 -1 0
    outer loop
      vertex -9.13545 -8 64.0674
      vertex 9.13545 -8 64.0674
      vertex 8.09017 -8 65.8779
    endloop
  endfacet
  facet normal 0 -1 0
    outer loop
      vertex -9.78148 -8 62.0791
      vertex 9.13545 -8 64.0674
      vertex -9.13545 -8 64.0674
    endloop
  endfacet
  facet normal 0 -1 0
    outer loop
      vertex -9.78148 -8 62.0791
      vertex 9.78148 -8 62.0791
      vertex 9.13545 -8 64.0674
    endloop
  endfacet
  facet normal 0 -1 0
    outer loop
      vertex -10 -8 60
      vertex 9.78148 -8 62.0791
      vertex -9.78148 -8 62.0791
    endloop
  endfacet
  facet normal 0 -1 0
    outer loop
      vertex -10 -8 60
      vertex 10 -8 60
      vertex 9.78148 -8 62.0791
    endloop
  endfacet
  facet normal 0 -1 0
    outer loop
      vertex -10 -8 60
      vertex -2.37802 -8 42.6254
      vertex 10 -8 60
    endloop
  endfacet
  facet normal 0 -1 0
    outer loop
      vertex -10 -8 60
      vertex -7.03014 -8 41.6365
      vertex -2.37802 -8 42.6254
    endloop
  endfacet
  facet normal -0 -1 0
    outer loop
      vertex -7.03014 -8 41.6365
      vertex -10 -8 60
      vertex -10 -8 40.3143
    endloop
  endfacet
  facet normal 0 -1 0
    outer loop
      vertex 2.37802 -8 42.6254
      vertex 10 -8 60
      vertex -2.37802 -8 42.6254
    endloop
  endfacet
  facet normal 0 -1 0
    outer loop
      vertex 7.03014 -8 41.6365
      vertex 10 -8 60
      vertex 2.37802 -8 42.6254
    endloop
  endfacet
  facet normal 0 -1 -0
    outer loop
      vertex 10 -8 60
      vertex 7.03014 -8 41.6365
      vertex 10 -8 40.3143
    endloop
  endfacet
  facet normal 1 -0 0
    outer loop
      vertex 10 -8 60
      vertex 10 8.95157e-015 40.3143
      vertex 10 1.33227e-014 60
    endloop
  endfacet
  facet normal 1 0 0
    outer loop
      vertex 10 8.95157e-015 40.3143
      vertex 10 -8 60
      vertex 10 -8 40.3143
    endloop
  endfacet
  facet normal 0.866025 -0 0.5
    outer loop
      vertex 8.09017 -8 65.8779
      vertex 9.13545 1.42258e-014 64.0674
      vertex 8.09017 1.46278e-014 65.8779
    endloop
  endfacet
  facet normal 0.866025 0 0.5
    outer loop
      vertex 9.13545 1.42258e-014 64.0674
      vertex 8.09017 -8 65.8779
      vertex 9.13545 -8 64.0674
    endloop
  endfacet
  facet normal 0.743145 -0 0.669131
    outer loop
      vertex 6.69131 -8 67.4314
      vertex 8.09017 1.46278e-014 65.8779
      vertex 6.69131 1.49728e-014 67.4314
    endloop
  endfacet
  facet normal 0.743145 0 0.669131
    outer loop
      vertex 8.09017 1.46278e-014 65.8779
      vertex 6.69131 -8 67.4314
      vertex 8.09017 -8 65.8779
    endloop
  endfacet
  facet normal 0.207912 0 0.978148
    outer loop
      vertex 1.04528 1.5531e-014 69.9452
      vertex 3.09017 -8 69.5106
      vertex 3.09017 1.54344e-014 69.5106
    endloop
  endfacet
  facet normal 0.207912 0 0.978148
    outer loop
      vertex 3.09017 -8 69.5106
      vertex 1.04528 1.5531e-014 69.9452
      vertex 1.04528 -8 69.9452
    endloop
  endfacet
  facet normal -0.587785 0 0.809017
    outer loop
      vertex -6.69131 1.49728e-014 67.4314
      vertex -5 -8 68.6603
      vertex -5 1.52456e-014 68.6603
    endloop
  endfacet
  facet normal -0.587785 0 0.809017
    outer loop
      vertex -5 -8 68.6603
      vertex -6.69131 1.49728e-014 67.4314
      vertex -6.69131 -8 67.4314
    endloop
  endfacet
  facet normal -0.951057 0 0.309017
    outer loop
      vertex -9.78148 -8 62.0791
      vertex -9.13545 1.42258e-014 64.0674
      vertex -9.78148 1.37843e-014 62.0791
    endloop
  endfacet
  facet normal -0.951057 0 0.309017
    outer loop
      vertex -9.13545 1.42258e-014 64.0674
      vertex -9.78148 -8 62.0791
      vertex -9.13545 -8 64.0674
    endloop
  endfacet
  facet normal -0.743145 0 0.669131
    outer loop
      vertex -8.09017 -8 65.8779
      vertex -6.69131 1.49728e-014 67.4314
      vertex -8.09017 1.46278e-014 65.8779
    endloop
  endfacet
  facet normal -0.743145 0 0.669131
    outer loop
      vertex -6.69131 1.49728e-014 67.4314
      vertex -8.09017 -8 65.8779
      vertex -6.69131 -8 67.4314
    endloop
  endfacet
  facet normal 0.951057 -0 0.309017
    outer loop
      vertex 9.13545 -8 64.0674
      vertex 9.78148 1.37843e-014 62.0791
      vertex 9.13545 1.42258e-014 64.0674
    endloop
  endfacet
  facet normal 0.951057 0 0.309017
    outer loop
      vertex 9.78148 1.37843e-014 62.0791
      vertex 9.13545 -8 64.0674
      vertex 9.78148 -8 62.0791
    endloop
  endfacet
  facet normal 0.587785 0 0.809017
    outer loop
      vertex 5 1.52456e-014 68.6603
      vertex 6.69131 -8 67.4314
      vertex 6.69131 1.49728e-014 67.4314
    endloop
  endfacet
  facet normal 0.587785 0 0.809017
    outer loop
      vertex 6.69131 -8 67.4314
      vertex 5 1.52456e-014 68.6603
      vertex 5 -8 68.6603
    endloop
  endfacet
  facet normal -0.207912 0 0.978148
    outer loop
      vertex -3.09017 1.54344e-014 69.5106
      vertex -1.04528 -8 69.9452
      vertex -1.04528 1.5531e-014 69.9452
    endloop
  endfacet
  facet normal -0.207912 0 0.978148
    outer loop
      vertex -1.04528 -8 69.9452
      vertex -3.09017 1.54344e-014 69.5106
      vertex -3.09017 -8 69.5106
    endloop
  endfacet
  facet normal 0.406737 0 0.913545
    outer loop
      vertex 3.09017 1.54344e-014 69.5106
      vertex 5 -8 68.6603
      vertex 5 1.52456e-014 68.6603
    endloop
  endfacet
  facet normal 0.406737 0 0.913545
    outer loop
      vertex 5 -8 68.6603
      vertex 3.09017 1.54344e-014 69.5106
      vertex 3.09017 -8 69.5106
    endloop
  endfacet
  facet normal -0.866025 0 0.5
    outer loop
      vertex -9.13545 -8 64.0674
      vertex -8.09017 1.46278e-014 65.8779
      vertex -9.13545 1.42258e-014 64.0674
    endloop
  endfacet
  facet normal -0.866025 0 0.5
    outer loop
      vertex -8.09017 1.46278e-014 65.8779
      vertex -9.13545 -8 64.0674
      vertex -8.09017 -8 65.8779
    endloop
  endfacet
  facet normal -0.406737 0 0.913545
    outer loop
      vertex -5 1.52456e-014 68.6603
      vertex -3.09017 -8 69.5106
      vertex -3.09017 1.54344e-014 69.5106
    endloop
  endfacet
  facet normal -0.406737 0 0.913545
    outer loop
      vertex -3.09017 -8 69.5106
      vertex -5 1.52456e-014 68.6603
      vertex -5 -8 68.6603
    endloop
  endfacet
  facet normal 0.994522 -0 0.104529
    outer loop
      vertex 9.78148 -8 62.0791
      vertex 10 1.33227e-014 60
      vertex 9.78148 1.37843e-014 62.0791
    endloop
  endfacet
  facet normal 0.994522 0 0.104529
    outer loop
      vertex 10 1.33227e-014 60
      vertex 9.78148 -8 62.0791
      vertex 10 -8 60
    endloop
  endfacet
  facet normal -0 0 1
    outer loop
      vertex -1.04528 1.5531e-014 69.9452
      vertex 1.04528 -8 69.9452
      vertex 1.04528 1.5531e-014 69.9452
    endloop
  endfacet
  facet normal 0 0 1
    outer loop
      vertex 1.04528 -8 69.9452
      vertex -1.04528 1.5531e-014 69.9452
      vertex -1.04528 -8 69.9452
    endloop
  endfacet
  facet normal -0.994522 0 0.104529
    outer loop
      vertex -10 -8 60
      vertex -9.78148 1.37843e-014 62.0791
      vertex -10 1.33227e-014 60
    endloop
  endfacet
  facet normal -0.994522 0 0.104529
    outer loop
      vertex -9.78148 1.37843e-014 62.0791
      vertex -10 -8 60
      vertex -9.78148 -8 62.0791
    endloop
  endfacet
  facet normal 1 -0 0
    outer loop
      vertex -5.5 -2 54
      vertex -5.5 5.9952e-015 27
      vertex -5.5 1.19904e-014 54
    endloop
  endfacet
  facet normal 1 0 0
    outer loop
      vertex -5.5 5.9952e-015 27
      vertex -5.5 -2 54
      vertex -5.5 -2 27
    endloop
  endfacet
  facet normal -1 0 0
    outer loop
      vertex 5.5 -2 27
      vertex 5.5 1.19904e-014 54
      vertex 5.5 5.9952e-015 27
    endloop
  endfacet
  facet normal -1 -0 0
    outer loop
      vertex 5.5 1.19904e-014 54
      vertex 5.5 -2 27
      vertex 5.5 -2 54
    endloop
  endfacet
  facet normal 0 0 -1
    outer loop
      vertex -5.5 -2 54
      vertex 5.5 1.19904e-014 54
      vertex 5.5 -2 54
    endloop
  endfacet
  facet normal -0 0 -1
    outer loop
      vertex 5.5 1.19904e-014 54
      vertex -5.5 -2 54
      vertex -5.5 1.19904e-014 54
    endloop
  endfacet
  facet normal -0 0 1
    outer loop
      vertex -5.5 5.9952e-015 27
      vertex 5.5 -2 27
      vertex 5.5 5.9952e-015 27
    endloop
  endfacet
  facet normal 0 0 1
    outer loop
      vertex 5.5 -2 27
      vertex -5.5 5.9952e-015 27
      vertex -5.5 -2 27
    endloop
  endfacet
  facet normal -0.923879 -0.382684 0
    outer loop
      vertex -6.4121 -66.4879 39.7344
      vertex -6.93223 -65.2322 41.6573
      vertex -6.93223 -65.2322 39.5028
    endloop
  endfacet
  facet normal -0.92388 -0.382682 -0
    outer loop
      vertex -6.2 -67 41.813
      vertex -6.4121 -66.4879 39.7344
      vertex -6.2 -67 39.7795
    endloop
  endfacet
  facet normal -0.92388 -0.382683 -4.04497e-007
    outer loop
      vertex -6.4121 -66.4879 39.7344
      vertex -6.2 -67 41.813
      vertex -6.93223 -65.2322 41.6573
    endloop
  endfacet
  facet normal 0.92388 -0.382683 0
    outer loop
      vertex -11.2 -67 39.78
      vertex -10.4678 -65.2322 37.9026
      vertex -10.4678 -65.2322 40.106
    endloop
  endfacet
  facet normal 0.92388 -0.382683 0
    outer loop
      vertex -10.4678 -65.2322 37.9026
      vertex -11.2 -67 39.78
      vertex -11.2 -67 37.3706
    endloop
  endfacet
  facet normal -0.382662 0.923888 0
    outer loop
      vertex -6.93223 -68.7678 39.5028
      vertex -7.03014 -68.8083 41.6365
      vertex -6.93223 -68.7678 41.6573
    endloop
  endfacet
  facet normal -0.382683 0.92388 -1.1307e-006
    outer loop
      vertex -7.03014 -68.8083 41.6365
      vertex -6.93223 -68.7678 39.5028
      vertex -8.7 -69.5 40.8931
    endloop
  endfacet
  facet normal -0.382683 0.92388 0
    outer loop
      vertex -8.7 -69.5 40.8931
      vertex -6.93223 -68.7678 39.5028
      vertex -8.7 -69.5 38.7158
    endloop
  endfacet
  facet normal 0.382683 -0.92388 0
    outer loop
      vertex -10.4678 -65.2322 40.106
      vertex -8.7 -64.5 38.7158
      vertex -8.7 -64.5 40.8931
    endloop
  endfacet
  facet normal 0.382684 -0.923879 1.75324e-006
    outer loop
      vertex -10.4678 -65.2322 40.106
      vertex -10.375 -65.1938 37.97
      vertex -8.7 -64.5 38.7158
    endloop
  endfacet
  facet normal 0.382649 -0.923894 0
    outer loop
      vertex -10.375 -65.1938 37.97
      vertex -10.4678 -65.2322 40.106
      vertex -10.4678 -65.2322 37.9026
    endloop
  endfacet
  facet normal -0.382683 -0.92388 -1.1307e-006
    outer loop
      vertex -6.93223 -65.2322 39.5028
      vertex -7.03014 -65.1917 41.6365
      vertex -8.7 -64.5 40.8931
    endloop
  endfacet
  facet normal -0.382662 -0.923888 0
    outer loop
      vertex -7.03014 -65.1917 41.6365
      vertex -6.93223 -65.2322 39.5028
      vertex -6.93223 -65.2322 41.6573
    endloop
  endfacet
  facet normal -0.382683 -0.92388 0
    outer loop
      vertex -6.93223 -65.2322 39.5028
      vertex -8.7 -64.5 40.8931
      vertex -8.7 -64.5 38.7158
    endloop
  endfacet
  facet normal -0.92388 0.382682 0
    outer loop
      vertex -6.4121 -67.5121 39.7344
      vertex -6.2 -67 41.813
      vertex -6.2 -67 39.7795
    endloop
  endfacet
  facet normal -0.923879 0.382684 0
    outer loop
      vertex -6.93223 -68.7678 41.6573
      vertex -6.4121 -67.5121 39.7344
      vertex -6.93223 -68.7678 39.5028
    endloop
  endfacet
  facet normal -0.92388 0.382683 -4.04497e-007
    outer loop
      vertex -6.4121 -67.5121 39.7344
      vertex -6.93223 -68.7678 41.6573
      vertex -6.2 -67 41.813
    endloop
  endfacet
  facet normal 0.382683 0.92388 -0
    outer loop
      vertex -8.7 -69.5 38.7158
      vertex -10.4678 -68.7678 40.106
      vertex -8.7 -69.5 40.8931
    endloop
  endfacet
  facet normal 0.382684 0.923879 1.75324e-006
    outer loop
      vertex -10.375 -68.8062 37.97
      vertex -10.4678 -68.7678 40.106
      vertex -8.7 -69.5 38.7158
    endloop
  endfacet
  facet normal 0.382649 0.923894 0
    outer loop
      vertex -10.4678 -68.7678 40.106
      vertex -10.375 -68.8062 37.97
      vertex -10.4678 -68.7678 37.9026
    endloop
  endfacet
  facet normal 0.92388 0.382683 -0
    outer loop
      vertex -10.4678 -68.7678 37.9026
      vertex -11.2 -67 39.78
      vertex -10.4678 -68.7678 40.106
    endloop
  endfacet
  facet normal 0.92388 0.382683 0
    outer loop
      vertex -11.2 -67 39.78
      vertex -10.4678 -68.7678 37.9026
      vertex -11.2 -67 37.3706
    endloop
  endfacet
  facet normal 1 -0 0
    outer loop
      vertex 1.5 -91 26.8
      vertex 1.5 -89 23.8
      vertex 1.5 -89 26.8
    endloop
  endfacet
  facet normal 1 0 0
    outer loop
      vertex 1.5 -89 23.8
      vertex 1.5 -91 26.8
      vertex 1.5 -91 23.8
    endloop
  endfacet
  facet normal -1 0 0
    outer loop
      vertex 10.5 -91 23.8
      vertex 10.5 -89 26.8
      vertex 10.5 -89 23.8
    endloop
  endfacet
  facet normal -1 -0 0
    outer loop
      vertex 10.5 -89 26.8
      vertex 10.5 -91 23.8
      vertex 10.5 -91 26.8
    endloop
  endfacet
  facet normal -0 0 1
    outer loop
      vertex 1.5 -89 23.8
      vertex 10.5 -91 23.8
      vertex 10.5 -89 23.8
    endloop
  endfacet
  facet normal 0 0 1
    outer loop
      vertex 10.5 -91 23.8
      vertex 1.5 -89 23.8
      vertex 1.5 -91 23.8
    endloop
  endfacet
  facet normal 0 0 -1
    outer loop
      vertex 1.5 -91 26.8
      vertex 10.5 -89 26.8
      vertex 10.5 -91 26.8
    endloop
  endfacet
  facet normal -0 0 -1
    outer loop
      vertex 10.5 -89 26.8
      vertex 1.5 -91 26.8
      vertex 1.5 -89 26.8
    endloop
  endfacet
endsolid OpenSCAD_Model
